<svg width="10" height="10" viewBox="0 0 10 10" fill="none" xmlns="http://www.w3.org/2000/svg">
<path d="M2.22205 5.3902L6.67218 9.84025C6.77511 9.94325 6.9125 10 7.05901 10C7.20551 10 7.34291 9.94325 7.44583 9.84025L7.77355 9.51261C7.9868 9.29911 7.9868 8.95212 7.77355 8.73895L4.03667 5.00207L7.7777 1.26105C7.88063 1.15804 7.93745 1.02072 7.93745 0.874302C7.93745 0.727717 7.88063 0.590401 7.7777 0.487312L7.44998 0.159754C7.34697 0.0567474 7.20966 0 7.06315 0C6.91665 0 6.77925 0.0567474 6.67633 0.159754L2.22205 4.61386C2.11888 4.7172 2.06222 4.85516 2.06254 5.00183C2.06222 5.14906 2.11888 5.28695 2.22205 5.3902Z" fill="white"/>
</svg>
