<svg width="12" height="12" viewBox="0 0 12 12" fill="none" xmlns="http://www.w3.org/2000/svg">
<path d="M2.66648 6.46824L8.00663 11.8083C8.13015 11.9319 8.29502 12 8.47083 12C8.64663 12 8.81151 11.9319 8.93502 11.8083L9.32828 11.4151C9.58418 11.1589 9.58418 10.7425 9.32828 10.4867L4.84403 6.00249L9.33326 1.51326C9.45677 1.38965 9.52496 1.22487 9.52496 1.04916C9.52496 0.873261 9.45677 0.708482 9.33326 0.584775L8.93999 0.191706C8.81638 0.0680971 8.6516 0 8.4758 0C8.3 0 8.13512 0.0680971 8.01161 0.191706L2.66648 5.53664C2.54268 5.66064 2.47468 5.8262 2.47507 6.00219C2.47468 6.17888 2.54268 6.34434 2.66648 6.46824Z" fill="#19191C"/>
</svg>
