<svg width="36" height="36" viewBox="0 0 36 36" fill="none" xmlns="http://www.w3.org/2000/svg">
<path fill-rule="evenodd" clip-rule="evenodd" d="M15.5359 0.225245C14.1751 0.701994 13.0912 1.691 12.4693 3.02359L12.0748 3.86914L12.0044 7.72104C11.9385 11.3267 11.9165 11.5856 11.6606 11.7726C11.2899 12.0435 11.0702 12.0239 10.737 11.6905C10.4835 11.4368 10.4554 11.2208 10.4554 9.53122C10.4554 7.32786 10.2799 6.65579 9.4619 5.72582C8.70261 4.86252 7.88432 4.50245 6.69005 4.5064C5.11246 4.51147 3.99099 5.24611 3.31408 6.71765C2.97851 7.44722 2.9764 7.48118 3.01921 11.5091L3.06244 15.5659L3.44096 16.3742C3.92467 17.4069 5.02488 18.508 6.05679 18.9921C6.82551 19.3525 6.98872 19.3731 9.43444 19.4172L12.0044 19.4637V27.5385C12.0044 34.8777 12.0256 35.6308 12.2373 35.8066C12.4244 35.9621 13.4028 36 17.2312 36C21.6131 36 22.0124 35.98 22.2438 35.7484C22.4742 35.5182 22.4987 35.0778 22.5356 30.5106L22.5758 25.5241L25.7744 25.4773L28.9729 25.4306L29.8886 24.9963C31.0107 24.4642 31.9925 23.508 32.5191 22.4343L32.9158 21.6257L32.9579 16.7915L33 11.9574L32.6632 11.225C32.0098 9.80475 30.8568 9.02135 29.4117 9.016C28.1588 9.01134 27.5208 9.25923 26.7094 10.0663C25.6426 11.1273 25.5229 11.6055 25.5229 14.8059C25.5229 17.0201 25.487 17.4842 25.3016 17.6698C25.0265 17.945 22.9988 17.9864 22.7347 17.722C22.6086 17.5959 22.565 16.045 22.5629 11.627C22.5613 8.36774 22.4968 5.25725 22.4194 4.71469C22.1458 2.79769 21.1095 1.32812 19.4428 0.493706C18.5387 0.041056 18.3358 -0.00559016 17.3014 0.000469603C16.6494 0.00427457 15.8911 0.100808 15.5359 0.225245ZM18.8568 1.85067C19.2318 2.03726 19.7458 2.4699 20.0518 2.85659C21.0006 4.05572 21.0167 4.19806 21.0167 11.4134V17.8494L21.3335 18.3153C21.9392 19.2058 22.3002 19.3658 23.8239 19.4186C25.4586 19.4754 26.1305 19.2239 26.6691 18.3535C26.9806 17.8503 27.0029 17.6548 27.0706 14.8358C27.1362 12.1038 27.1669 11.8179 27.4326 11.4623C27.9759 10.7351 28.4389 10.492 29.2648 10.5001C30.1211 10.5084 30.5955 10.7764 31.1204 11.5481C31.4328 12.0075 31.4372 12.077 31.4372 16.5777C31.4372 20.1751 31.3954 21.2416 31.2396 21.6147C30.9348 22.3449 30.0325 23.256 29.2545 23.6193C28.5764 23.936 28.421 23.9482 25.0411 23.9495C21.9744 23.9508 21.4993 23.9804 21.2743 24.1842C21.0339 24.4019 21.0167 24.7541 21.0167 29.4688V34.5203H20.2422H19.4677V28.5445V22.5687L23.2346 22.5153C26.8264 22.4645 27.0361 22.4466 27.7461 22.1299C28.6886 21.7095 29.5386 20.7614 29.8185 19.8179C29.9792 19.2762 30.029 18.3256 30.029 15.798C30.029 12.9155 29.9989 12.4544 29.796 12.2301C29.5003 11.903 29.012 11.8995 28.7201 12.2222C28.5279 12.4348 28.4879 13.0011 28.4519 16.0171C28.4039 20.0451 28.3981 20.0668 27.2099 20.6744C26.615 20.9785 26.444 20.9915 23.0287 20.9915H19.4677V12.9055C19.4677 4.08588 19.5007 4.43227 18.6698 4.52838C18.4203 4.55727 18.2127 4.70214 18.1001 4.92607C17.9611 5.20229 17.9224 8.43426 17.9208 19.8993L17.9187 34.5203H17.2146H16.5105V19.7332C16.5105 3.59222 16.5569 4.5033 15.736 4.5033C14.9638 4.5033 14.9615 4.51951 14.9615 9.9468V14.9472L11.9438 14.9043C9.15295 14.8645 8.89694 14.8394 8.53771 14.5707C7.60015 13.8694 7.57283 13.7657 7.52467 10.7308C7.48834 8.43552 7.44229 7.91622 7.25641 7.71089C6.97464 7.39916 6.5412 7.39296 6.20676 7.69595C5.97525 7.90565 5.9492 8.18806 5.9492 10.4888C5.9492 13.7006 6.08692 14.2642 7.12616 15.3041C8.18088 16.3597 8.70444 16.4819 12.1708 16.4819H14.9615V25.5011V34.5203H14.2608H13.5601L13.5215 26.4925C13.4856 19.0081 13.4659 18.4478 13.2319 18.2132C13.0115 17.9925 12.6149 17.953 9.99306 17.8912C6.68441 17.8131 6.55233 17.7808 5.58308 16.8108C4.58651 15.8135 4.54765 15.6076 4.54412 11.3238C4.54117 7.59237 4.54835 7.49372 4.85787 7.03854C5.38269 6.26683 5.85711 5.99879 6.71342 5.99048C7.53932 5.98245 8.00218 6.22554 8.5456 6.95257C8.80104 7.29432 8.84498 7.60787 8.91046 9.55517C8.97369 11.4372 9.02762 11.8422 9.27011 12.2577C10.1606 13.7838 12.2968 13.7815 13.1937 12.2537C13.4611 11.798 13.4883 11.4692 13.5534 7.8855C13.6332 3.48765 13.6678 3.33926 14.8468 2.32939C15.9681 1.36885 17.5167 1.18396 18.8568 1.85067Z" fill="#A5806A"/>
</svg>
