<svg width="28" height="89" viewBox="0 0 28 89" fill="none" xmlns="http://www.w3.org/2000/svg">
<path d="M25.1896 19.6934L24.7341 19.8995L25.1896 19.6934ZM1.69631 87.7737C1.74233 88.046 2.00036 88.2294 2.27264 88.1834L6.70972 87.4335C6.982 87.3874 7.16542 87.1294 7.1194 86.8571C7.07338 86.5848 6.81535 86.4014 6.54307 86.4474L2.599 87.114L1.93242 83.17C1.88641 82.8977 1.62837 82.7143 1.3561 82.7603C1.08381 82.8063 0.90039 83.0643 0.946406 83.3366L1.69631 87.7737ZM2.18926 1.19531C2.14055 1.69293 2.14035 1.69292 2.14021 1.6929C2.14024 1.6929 2.14016 1.6929 2.14022 1.6929C2.14035 1.69292 2.1407 1.69295 2.14129 1.69301C2.14246 1.69313 2.14455 1.69335 2.14754 1.69366C2.15354 1.6943 2.16317 1.69535 2.17635 1.69686C2.20271 1.69989 2.24325 1.70478 2.29729 1.71195C2.40536 1.72628 2.56736 1.74975 2.77772 1.78573C3.1985 1.85771 3.8124 1.97972 4.57495 2.17882C6.10047 2.57713 8.21801 3.28324 10.5733 4.51266C15.279 6.969 20.9409 11.5171 24.7341 19.8995L25.6452 19.4873C21.7456 10.8698 15.9073 6.16891 11.036 3.62617C8.60279 2.35605 6.41263 1.62511 4.82758 1.21125C4.03484 1.00427 3.39275 0.876415 2.94633 0.800052C2.7231 0.761866 2.54872 0.736541 2.42881 0.720632C2.36885 0.712677 2.32249 0.707075 2.29046 0.703395C2.27444 0.701555 2.26199 0.700196 2.25322 0.699263C2.24883 0.698796 2.24535 0.698437 2.24281 0.698177C2.24153 0.698047 2.24049 0.697942 2.23969 0.697861C2.23928 0.697821 2.23885 0.697778 2.23865 0.697758C2.23828 0.697721 2.23796 0.697691 2.18926 1.19531ZM24.7341 19.8995C27.1309 25.1961 26.9512 32.0379 25.266 39.3937C23.5836 46.737 20.4184 54.5176 16.9359 61.6388C13.4548 68.757 9.66536 75.1992 6.74517 79.863C5.28536 82.1944 4.04349 84.0803 3.167 85.3827C2.72877 86.0339 2.38192 86.5391 2.1449 86.8812C2.02639 87.0523 1.93534 87.1825 1.87405 87.2698C1.84341 87.3134 1.8202 87.3464 1.80473 87.3683C1.797 87.3792 1.79119 87.3874 1.78735 87.3928C1.78544 87.3955 1.78401 87.3975 1.78308 87.3988C1.78262 87.3995 1.7823 87.4 1.78206 87.4003C1.78186 87.4006 1.78179 87.4007 2.18932 87.6904C2.59684 87.98 2.59702 87.9798 2.59732 87.9794C2.59759 87.979 2.59802 87.9784 2.59855 87.9776C2.59962 87.9761 2.60118 87.9739 2.60324 87.971C2.60735 87.9652 2.61344 87.9566 2.62145 87.9453C2.63749 87.9226 2.66126 87.8889 2.69248 87.8444C2.75492 87.7555 2.84716 87.6235 2.96688 87.4507C3.20632 87.1052 3.55572 86.5961 3.99663 85.941C4.8784 84.6307 6.12635 82.7356 7.59273 80.3937C10.5249 75.7107 14.3333 69.237 17.8342 62.0781C21.3336 54.9224 24.5344 47.0648 26.2407 39.617C27.9441 32.1818 28.1758 25.0795 25.6452 19.4873L24.7341 19.8995Z" fill="white"/>
</svg>
