<svg width="36" height="36" viewBox="0 0 36 36" fill="none" xmlns="http://www.w3.org/2000/svg">
<path fill-rule="evenodd" clip-rule="evenodd" d="M0.29763 0.267879C0.00162158 0.530756 -0.0133278 0.651525 0.00542832 2.62604C0.0636709 8.74057 1.16041 13.1402 3.25179 15.6495C5.26602 18.0659 9.19973 18.7472 12.5561 17.2607L13.4042 16.8851L13.9614 18.4505C15.3582 22.3737 16.0673 26.7794 16.3117 33.0535C16.4076 35.5151 16.4183 35.5819 16.7603 35.8276C17.0726 36.052 17.1509 36.0546 17.4822 35.8513C17.8263 35.6401 17.8612 35.5205 17.9545 34.2367C18.3387 28.9449 18.6514 26.9351 19.503 24.2805C19.9238 22.9687 21.0042 20.4337 21.3744 19.8892C21.5556 19.6228 21.6058 19.637 22.3187 20.1553C24.2172 21.5357 27.3061 21.9893 29.6561 21.2325C32.8794 20.1948 34.7433 17.1565 35.6204 11.511C35.8808 9.83507 36.1092 4.64231 35.9441 4.15429C35.7376 3.54441 35.2981 3.4838 32.4828 3.67632C27.4503 4.02069 24.5374 4.89437 22.3155 6.72601C19.8034 8.79655 18.9336 13.0573 20.2007 17.0857L20.495 18.0214L19.9629 18.9336C19.2108 20.2228 18.3744 22.2318 17.8398 24.0332C17.4908 25.2094 17.3647 25.4852 17.31 25.193C16.5186 20.971 15.9798 18.9094 15.1158 16.7979L14.6902 15.7577L15.109 15.0337C16.0102 13.4755 16.4678 11.2498 16.3345 9.07288C15.9937 3.50436 12.2609 0.781727 4.10399 0.151749C1.18227 -0.0738616 0.664713 -0.0580891 0.29763 0.267879ZM6.64241 2.24425C10.8247 2.91011 13.3953 4.47114 14.2654 6.87306C14.5606 7.68814 14.6011 8.05122 14.6011 9.88734C14.6011 11.699 14.5586 12.092 14.2792 12.8611C14.1023 13.3485 13.9076 13.781 13.847 13.8222C13.7862 13.8633 13.4263 13.3949 13.0473 12.7813C12.1392 11.3117 10.3979 9.42344 8.84548 8.22503C7.53269 7.21171 7.18408 7.09295 6.75932 7.51448C6.16632 8.10286 6.44568 8.55625 8.33469 10.0717C8.91641 10.5383 9.81882 11.4176 10.3402 12.0255C11.4166 13.2809 12.6142 15.1532 12.4536 15.3294C12.1735 15.6365 10.5399 16.0993 9.46288 16.1768C7.17096 16.3413 5.26687 15.6114 4.21667 14.1654C3.20088 12.7669 2.51127 10.8458 2.07029 8.18637C1.86257 6.93321 1.56557 3.494 1.56557 2.34152V1.79922L3.36362 1.90391C4.35261 1.96143 5.828 2.11452 6.64241 2.24425ZM34.4234 5.8282C34.4217 7.08785 34.0912 10.7757 33.8656 12.0522C32.8603 17.7383 30.67 20.0309 26.5267 19.7333C25.8674 19.6859 24.9482 19.5022 24.484 19.3248C23.6244 18.9965 22.578 18.3034 22.578 18.0624C22.578 17.8066 24.588 15.6116 25.5885 14.7748C26.1433 14.3108 27.1049 13.6364 27.7254 13.2763C29.1432 12.4533 29.3472 12.2599 29.3472 11.7378C29.3472 11.2245 29.0368 10.9161 28.5288 10.9246C27.6356 10.9398 24.3994 13.2862 22.6693 15.1732C22.1376 15.7529 21.6821 16.2273 21.6567 16.2273C21.4759 16.2273 21.2858 14.207 21.344 12.9044C21.4594 10.3177 22.2438 8.77367 24.0461 7.58577C25.9224 6.34901 29.5852 5.4962 33.3311 5.42399L34.424 5.40296L34.4234 5.8282Z" fill="#A5806A"/>
</svg>
