<svg width="36" height="36" viewBox="0 0 36 36" fill="none" xmlns="http://www.w3.org/2000/svg">
<path fill-rule="evenodd" clip-rule="evenodd" d="M7.97863 0.146795C7.73133 0.446842 0 22.8987 0 23.3165C0 23.551 0.110351 23.7568 0.284179 23.8463C0.458008 23.9357 1.97089 23.9925 4.17806 23.9925H7.78776V26.0189C7.78776 27.8027 7.81993 28.0733 8.05651 28.2792C8.43061 28.6048 8.90449 28.5707 9.1753 28.1989C9.35544 27.9517 9.40408 27.4717 9.40408 25.9387V23.9925H10.5061C11.1122 23.9925 11.6082 24.0418 11.6082 24.102C11.6082 24.1621 11.1122 25.6385 10.5061 27.3828C9.9 29.1272 9.40408 30.6862 9.40408 30.8474C9.40408 31.4531 9.57394 31.4795 13.4743 31.4795H17.1918V33.5178C17.1918 35.7242 17.2816 36 18 36C18.7184 36 18.8082 35.7242 18.8082 33.5178V31.4795H22.5257C26.4261 31.4795 26.5959 31.4531 26.5959 30.8474C26.5959 30.6862 26.1 29.1272 25.4939 27.3828C24.8878 25.6385 24.3918 24.1621 24.3918 24.102C24.3918 24.0418 24.8878 23.9925 25.4939 23.9925H26.5959V25.9387C26.5959 28.0582 26.7361 28.513 27.3897 28.513C28.0987 28.513 28.2122 28.165 28.2122 25.9943V23.9925H31.8219C34.0291 23.9925 35.542 23.9357 35.7158 23.8463C35.8896 23.7568 36 23.551 36 23.3165C36 22.8987 28.2687 0.446842 28.0214 0.146795C27.9335 0.0401397 27.649 -0.0190503 27.3432 0.00552977L26.8163 0.0480509L24.1099 7.81636L21.4032 15.5848L20.069 11.754C19.3351 9.64701 18.6439 7.81989 18.5331 7.69374C18.274 7.39934 17.726 7.39934 17.4669 7.69374C17.3561 7.81989 16.6649 9.64701 15.931 11.754L14.5968 15.5848L11.8901 7.81636L9.18367 0.0480509L8.65675 0.00552977C8.35097 -0.0190503 8.0665 0.0401397 7.97863 0.146795ZM13.0044 20.1783L12.2444 22.3679L10.8242 22.4083L9.40408 22.4487V21.2744C9.40408 19.9868 9.1847 19.472 8.63589 19.472C7.97069 19.472 7.78776 19.8424 7.78776 21.1891V22.4386H4.84898C3.23265 22.4386 1.9102 22.391 1.9102 22.3326C1.9102 22.2744 3.40898 17.9039 5.24087 12.6206L8.57138 3.01462L11.1679 10.5017L13.7643 17.9887L13.0044 20.1783ZM30.7893 12.7072C32.6045 17.9415 34.0898 22.2726 34.0898 22.3315C34.0898 22.3904 32.7673 22.4386 31.151 22.4386H28.2122V21.2136C28.2122 19.874 28.0224 19.472 27.3897 19.472C26.8153 19.472 26.5959 19.9701 26.5959 21.2744V22.4487L25.1752 22.4083L23.7546 22.3679L22.9956 20.1786L22.2368 17.9893L24.8168 10.5455C26.2358 6.45145 27.4173 3.12155 27.4426 3.14585C27.4679 3.17015 28.9738 7.4728 30.7893 12.7072ZM21.3852 20.3355C23.2005 25.5698 24.6857 29.9009 24.6857 29.9598C24.6857 30.0187 23.3633 30.0669 21.7469 30.0669H18.8082V28.8225C18.8082 27.416 18.6468 27.065 18 27.065C17.3532 27.065 17.1918 27.416 17.1918 28.8225V30.0669H14.2531C12.6367 30.0669 11.3143 30.0193 11.3143 29.9609C11.3143 29.7324 17.9611 10.6997 18.0209 10.7571C18.0558 10.7908 19.5697 15.1011 21.3852 20.3355Z" fill="#A5806A"/>
</svg>
