<svg width="28" height="28" viewBox="0 0 28 28" fill="none" xmlns="http://www.w3.org/2000/svg">
<path fill-rule="evenodd" clip-rule="evenodd" d="M12.05 0.0560617C11.7128 0.192553 11.6277 0.418979 11.5762 1.31764C11.4761 3.06425 11.1871 4.24245 10.5385 5.54886C9.99813 6.63719 9.43459 7.34672 7.71314 9.10619C5.66202 11.2027 5.10199 11.9079 4.50424 13.147C3.26212 15.7221 3.16253 19.2822 4.25975 21.8849C4.7686 23.0919 5.37642 24.0021 6.32791 24.9819C8.0306 26.7353 10.1319 27.7384 12.5738 27.9633C16.5475 28.3295 20.4244 25.9257 22.2978 21.9343C23.0359 20.3616 23.3345 18.9661 23.3333 17.0947C23.3307 12.8221 22.1388 9.11703 19.8525 6.27414C18.4199 4.49292 17.1767 3.38268 14.0985 1.13604C12.492 -0.0365664 12.3994 -0.0853335 12.05 0.0560617ZM14.2127 3.07247C14.8482 3.55302 15.6786 4.20204 16.0579 4.51474C16.8901 5.20079 18.2594 6.59906 18.7955 7.31025C20.755 9.90973 21.7284 12.8686 21.8631 16.6353C21.9291 18.482 21.6692 19.8227 20.9559 21.3136C19.9595 23.3966 18.2821 25.0722 16.3643 25.9003C16.0238 26.0473 15.726 26.1676 15.7025 26.1676C15.679 26.1676 15.803 26.0141 15.9782 25.8265C16.9152 24.8233 17.4748 23.3908 17.4696 22.0087C17.4637 20.4138 17.0536 19.0132 16.2735 17.9239C15.7036 17.1281 14.6207 16.1736 13.1399 15.1619C12.4511 14.6913 12.1383 14.6433 11.8247 14.9602C11.6516 15.1352 11.6303 15.2191 11.5554 16.0231C11.4653 16.9915 11.2526 17.7659 10.9169 18.3487C10.8007 18.5502 10.4422 19.0409 10.12 19.4389C8.99168 20.8334 8.7307 21.3965 8.66608 22.5757C8.6098 23.6021 8.85015 24.4953 9.40356 25.3164L9.61467 25.6297L9.28928 25.4476C7.50589 24.4493 6.06238 22.695 5.40338 20.725C4.71411 18.6644 4.88405 15.8131 5.81471 13.824C6.32818 12.7266 6.83207 12.0967 8.81595 10.0718C9.90165 8.96362 10.8456 7.93524 11.0792 7.60596C12.0968 6.17211 12.7556 4.4275 12.958 2.63046C12.9847 2.39306 13.018 2.19875 13.0318 2.19875C13.0458 2.19875 13.5771 2.59192 14.2127 3.07247ZM13.3955 17.1684C14.9179 18.4001 15.5955 19.3374 15.8582 20.5749C16.0142 21.3097 16.0143 22.5691 15.8583 23.0937C15.4498 24.4684 14.3585 25.6145 13.2992 25.7812C12.9054 25.843 12.2815 25.7211 11.773 25.4828C10.6409 24.9522 9.94565 23.6132 10.1606 22.3772C10.2664 21.7688 10.5275 21.2933 11.2656 20.3653C12.2423 19.1372 12.6469 18.3689 12.8594 17.3385C12.9078 17.1037 12.9768 16.9116 13.0127 16.9116C13.0487 16.9116 13.2209 17.0272 13.3955 17.1684Z" fill="#A5806A"/>
</svg>
