<svg width="36" height="36" viewBox="0 0 36 36" fill="none" xmlns="http://www.w3.org/2000/svg">
<path fill-rule="evenodd" clip-rule="evenodd" d="M0.0493307 0.211128C0.00373502 0.330894 -0.0133202 8.41894 0.011218 18.1848L0.0561181 35.9408L17.6331 35.9887C27.3004 36.015 35.3862 35.9939 35.6016 35.9419C36.0365 35.8367 36.1422 35.202 35.7844 34.8441C35.6248 34.6845 31.5419 34.6352 18.4684 34.6352H1.36134V17.5233C1.36134 4.44612 1.31209 0.362054 1.1525 0.202424C0.878408 -0.0717505 0.154967 -0.0660054 0.0493307 0.211128ZM28.2351 10.5942C26.9134 11.1948 26.2366 12.5859 26.6033 13.9482L26.7984 14.6727L24.7338 16.7376L22.6695 18.8026L22.0943 18.602C21.76 18.4854 21.1394 18.4461 20.6128 18.508L19.7067 18.6146L18.525 17.4233L17.3433 16.2321L17.5483 15.5478C17.7916 14.7352 17.5739 13.7014 17.008 12.9817C15.8293 11.4827 13.3396 11.6688 12.3116 13.3327C11.9893 13.8542 11.9451 14.1251 12.0173 15.1353L12.1023 16.324L10.082 18.334C8.35628 20.0507 8.01501 20.3174 7.74265 20.1616C7.5674 20.0613 7.03574 19.9825 6.56116 19.9861C4.9493 19.9985 3.75755 21.185 3.75755 22.7771C3.75755 24.2138 4.53755 25.22 5.94545 25.5991C7.95549 26.1405 9.91071 24.1221 9.35938 22.0746L9.16482 21.3514L11.1928 19.3175L13.2209 17.2836L14.0225 17.5475C14.7397 17.7837 14.9019 17.7833 15.5632 17.5455L16.3021 17.2797L17.466 18.4528L18.6299 19.6261L18.4157 20.2751C17.5661 22.8504 20.1856 25.1049 22.5024 23.7924C23.6949 23.1168 24.3477 21.3636 23.7929 20.3266C23.6206 20.0046 23.8226 19.7445 25.7378 17.8242C27.594 15.9632 27.9195 15.7048 28.212 15.8615C28.3973 15.9607 28.9349 16.0389 29.4065 16.0352C31.0128 16.0229 32.2048 14.8339 32.2048 13.2442C32.2048 11.9165 31.6225 11.0512 30.3801 10.5319C29.5518 10.1858 29.1056 10.1989 28.2351 10.5942ZM30.4116 12.2896C30.8999 12.9104 30.8736 13.6603 30.3451 14.1888C29.476 15.0583 27.9878 14.4757 27.9878 13.2656C27.9878 12.3954 28.5427 11.8309 29.3978 11.8309C29.8961 11.8309 30.1364 11.9397 30.4116 12.2896ZM15.6953 13.7585C16.6999 14.5488 16.0586 16.1829 14.7439 16.1829C13.5105 16.1829 12.9167 14.7049 13.7966 13.825C14.325 13.2963 15.0747 13.27 15.6953 13.7585ZM22.0089 20.2511C23.0167 21.1183 22.4273 22.6934 21.0951 22.6934C20.6172 22.6934 20.3572 22.5743 20.0469 22.2136C19.4922 21.5687 19.5234 20.9674 20.1431 20.3473C20.763 19.7275 21.3641 19.6963 22.0089 20.2511ZM7.54722 21.8326C8.45617 22.7418 7.85246 24.1905 6.56447 24.1905C5.33113 24.1905 4.73734 22.7126 5.61723 21.8326C5.88645 21.5631 6.24321 21.4052 6.58222 21.4052C6.92123 21.4052 7.27799 21.5631 7.54722 21.8326Z" fill="#A5806A"/>
</svg>
