<svg width="36" height="36" viewBox="0 0 36 36" fill="none" xmlns="http://www.w3.org/2000/svg">
<g clip-path="url(#clip0_101_610)">
<path d="M35.9278 35.0046L28.6474 14.3989C28.5739 14.0901 28.265 13.8621 27.9562 13.8621H24.6028C25.5514 11.575 26.0441 9.82481 26.0441 8.65554C26.0441 3.90492 22.3672 0 17.771 0C13.2484 0 9.49786 3.83138 9.49786 8.65554C9.49786 9.94983 10.1009 11.8251 10.9613 13.8621H8.04179C7.73292 13.8621 7.43141 14.0901 7.35052 14.3989L0.0701564 35.0046C-0.165168 35.762 0.533452 35.9973 0.761423 35.9973H35.2365C35.5454 36.0341 36.1558 35.6885 35.9278 35.0046ZM17.771 1.52226C21.5215 1.52226 24.5145 4.73591 24.5145 8.64819C24.5145 12.8031 18.6902 22.0544 17.771 23.584C15.4692 19.679 11.0275 11.7074 11.0275 8.64819C11.0275 4.74327 14.0132 1.52226 17.771 1.52226ZM1.83509 34.4677L8.57862 15.3917H11.6452C13.844 20.1056 17.771 26.4961 17.771 26.4961C17.771 26.4961 23.7571 15.7815 23.9336 15.3917H27.4193L34.1628 34.4677H1.83509Z" fill="#A5806A"/>
<path d="M23.0585 27.8787H13.0204V29.4083H23.0585V27.8787Z" fill="#A5806A"/>
<path d="M21.2935 7.95685C21.2935 6.04483 19.683 4.43433 17.771 4.43433C15.859 4.43433 14.2485 6.04483 14.2485 7.95685C14.2485 9.86886 15.7781 11.4794 17.771 11.4794C19.7639 11.4794 21.2935 9.87621 21.2935 7.95685ZM15.7781 7.88331C15.7781 6.80964 16.6238 5.8904 17.771 5.8904C18.9182 5.8904 19.7639 6.80964 19.7639 7.88331C19.7639 8.95698 18.9182 9.87621 17.771 9.87621C16.6973 9.87621 15.7781 8.95698 15.7781 7.88331Z" fill="#A5806A"/>
</g>
<defs>
<clipPath id="clip0_101_610">
<rect width="36" height="36" fill="white"/>
</clipPath>
</defs>
</svg>
