<svg fill="none" height="28" viewBox="0 0 28 28" width="28" xmlns="http://www.w3.org/2000/svg"><path clip-rule="evenodd" d="m4.38428 13.8542c5.40532-2.2663 9.00972-3.7604 10.81322-4.4823 5.1492-2.0611 5.8643-2.35993 6.5617-2.37183.1534-.00252.5275.06033.8193.30629s.3795.40533.4042.54421c.0247.13887.0221.57084-.0023.81804-.279 2.82149-1.3393 9.33399-1.9536 12.49409-.2599 1.3371-.7717 1.7855-1.2672 1.8293-1.0767.0954-1.8944-.6848-2.9373-1.3426-1.6319-1.0295-2.176-1.4095-3.76-2.4141-1.8307-1.1609-1.0767-1.5639-.0334-2.6067.273-.2729 4.7962-4.4124 4.8633-4.7924.0586-.3314.08-.3742-.0705-.5238-.1504-.1495-.3302-.1308-.4457-.1056-.1636.0358-2.6551 1.6181-7.47437 4.747-.73999.489-1.41026.7273-2.01079.7148-.66204-.0138-1.93554-.3602-2.88225-.6564-1.16119-.3632-2.08407-.5553-2.00371-1.1722.04186-.3213.50166-.6499 1.3794-.9858z" fill="#fff" fill-rule="evenodd"/></svg>