<svg width="28" height="28" viewBox="0 0 28 28" fill="none" xmlns="http://www.w3.org/2000/svg">
<path d="M23.2452 4.79459C20.8365 2.33514 17.5068 1 14.1063 1C6.88011 1 1.07084 6.83243 1.14169 13.9297C1.14169 16.1784 1.77929 18.3568 2.84196 20.3243L1 27L7.87193 25.2432C9.78474 26.2973 11.9101 26.7892 14.0354 26.7892C21.1907 26.7892 27 20.9568 27 13.8595C27 10.4162 25.654 7.18378 23.2452 4.79459ZM14.1063 24.6108C12.1935 24.6108 10.2807 24.1189 8.65123 23.1351L8.22616 22.9243L4.11717 23.9784L5.17984 19.973L4.89646 19.5514C1.77929 14.5622 3.26703 7.95676 8.36785 4.86486C13.4687 1.77297 20.0572 3.24865 23.1744 8.30811C26.2916 13.3676 24.8038 19.9027 19.703 22.9946C18.0736 24.0486 16.0899 24.6108 14.1063 24.6108ZM20.3406 16.8108L19.5613 16.4595C19.5613 16.4595 18.4278 15.9676 17.7193 15.6162C17.6485 15.6162 17.5777 15.5459 17.5068 15.5459C17.2943 15.5459 17.1526 15.6162 17.0109 15.6865C17.0109 15.6865 16.9401 15.7568 15.9482 16.8811C15.8774 17.0216 15.7357 17.0919 15.594 17.0919H15.5232C15.4523 17.0919 15.3106 17.0216 15.2398 16.9514L14.8856 16.8108C14.1063 16.4595 13.3978 16.0378 12.8311 15.4757C12.6894 15.3351 12.4768 15.1946 12.3351 15.0541C11.8392 14.5622 11.3433 14 10.9891 13.3676L10.9183 13.227C10.8474 13.1568 10.8474 13.0865 10.7766 12.9459C10.7766 12.8054 10.7766 12.6649 10.8474 12.5946C10.8474 12.5946 11.1308 12.2432 11.3433 12.0324C11.485 11.8919 11.5559 11.6811 11.6975 11.5405C11.8392 11.3297 11.9101 11.0486 11.8392 10.8378C11.7684 10.4865 10.9183 8.58919 10.7057 8.16757C10.564 7.95676 10.4223 7.88649 10.2098 7.81622H9.99728C9.85559 7.81622 9.64305 7.81622 9.43052 7.81622C9.28883 7.81622 9.14714 7.88649 9.00545 7.88649L8.9346 7.95676C8.79292 8.02703 8.65123 8.16757 8.50954 8.23784C8.36785 8.37838 8.297 8.51892 8.15531 8.65946C7.6594 9.29189 7.37602 10.0649 7.37602 10.8378C7.37602 11.4 7.51771 11.9622 7.73025 12.4541L7.80109 12.6649C8.43869 14 9.28883 15.1946 10.4223 16.2486L10.7057 16.5297C10.9183 16.7405 11.1308 16.8811 11.2725 17.0919C12.7602 18.3568 14.4605 19.2703 16.3733 19.7622C16.5858 19.8324 16.8692 19.8324 17.0817 19.9027C17.2943 19.9027 17.5777 19.9027 17.7902 19.9027C18.1444 19.9027 18.5695 19.7622 18.8529 19.6216C19.0654 19.4811 19.2071 19.4811 19.3488 19.3405L19.4905 19.2C19.6322 19.0595 19.7738 18.9892 19.9155 18.8486C20.0572 18.7081 20.1989 18.5676 20.2698 18.427C20.4114 18.1459 20.4823 17.7946 20.5531 17.4432C20.5531 17.3027 20.5531 17.0919 20.5531 16.9514C20.5531 16.9514 20.4823 16.8811 20.3406 16.8108Z" fill="#3DD724"/>
</svg>
