<svg fill="none" height="256" viewBox="0 0 256 256" width="256" xmlns="http://www.w3.org/2000/svg" xmlns:xlink="http://www.w3.org/1999/xlink"><clipPath id="a"><path d="m0 0h256v256h-256z"/></clipPath><clipPath id="b"><rect height="256" rx="128" width="256"/></clipPath><g clip-path="url(#a)"><path d="m0 0h256v256h-256z" fill="#000"/><g clip-path="url(#b)"><path d="m0 0h256v256h-256z" fill="#000"/><g fill="#fff"><path clip-rule="evenodd" d="m39.8631 154.22c-.0871.087-.0825 15.324.0046 15.363.038.016 3.7909.028 8.3399 0 6.6833-.043 8.3327-.098 8.5926-.199.9641-.375 2.093-1.443 2.5916-2.451l.2114-.663s.1838-.685.1838-1.37c0-.684-.094-1.419-.3921-2.013-.1642-.327-.5256-.839-.8033-1.139-.2776-.3-.7805-.69-.7805-.69s.3838-.456.5159-.83c.2184-.617.2356-.765.1902-1.639-.0752-1.446-.4451-2.237-1.4931-3.19-.5639-.512-.8042-.657-1.5944-.957-.5067-.192-.6118-.195-8.0078-.222-4.122-.014-7.5234-.035-7.5588 0zm43.0904-.02-.0548 15.362h21.7823l-.047-15.362h-3.033l-.037 12.299h-15.4591l-.0347-12.299zm9.3068 0 .0197 9.309h3.1181v-9.309zm44.1937 0v15.365h3.056v-12.172h11.236v12.172h2.998v-15.365zm42.281.09s-.051 2.413-.03 3.065h7.43c7.358.023 7.434.048 7.699.237.348.246.641.701.63 1.245-.011.567-.332 1.021-.733 1.256-.317.185-.448.217-7.698.246h-7.376l.048 9.175 3.196.051-.071-6.104h5.697c3.65-.013 5.896-.057 6.25-.121 2.966-.539 4.753-3.897 3.406-6.627-.563-1.14-1.685-2.031-2.994-2.377-.714-.189-15.454-.046-15.454-.046zm-135.8443 3.133c-.0007.013.0083 2.06 0 4.55v4.526h6.2425 6.2426l.4401-.202c.3608-.166.4745-.28.6307-.631.36-.81.0739-1.708-.648-2.035-.2884-.13-.9458-.201-5.1097-.241h-4.7788v-1.509-1.509h4.0436c3.9161-.05 4.2583.095 4.7788-.182.3407-.182.5966-.866.597-1.404.0004-.616-.2018-.968-.693-1.205-.3618-.174-.5837-.181-6.0444-.181-3.1178 0-5.7008.011-5.7014.023z" fill-rule="evenodd"/><path d="m108.807 169.565c-1.186-.003-2.978 0-2.978 0s3.859-5.489 10.838-15.274c0 0 9.29 13.184 10.666 15.271 0 0-4.503 0-13.969.003l2.109-3.02h6.162l-4.937-6.948s-4.528 6.491-6.714 9.535c-.338.328-.755.43-1.177.433z"/><path d="m62.9494 169.565c-1.1866-.003-2.9786 0-2.9786 0s3.8597-5.489 10.8385-15.274c0 0 9.2897 13.184 10.666 15.271 0 0-4.5031 0-13.9688.003l2.1088-3.02h6.1622l-4.9372-6.948s-4.5285 6.491-6.714 9.535c-.3385.328-.7553.43-1.1769.433z"/><path d="m158.341 169.565c-1.186-.003-2.978 0-2.978 0s3.859-5.49 10.838-15.275c0 0 9.29 13.187 10.666 15.275 0 0-4.503-.003-13.969 0l2.109-3.02h6.162l-4.937-6.948s-4.528 6.491-6.714 9.535c-.338.328-.755.43-1.177.433z"/><path d="m197.674 169.565c-1.186-.003-2.978 0-2.978 0s3.859-5.489 10.838-15.274c0 0 9.29 13.184 10.666 15.271 0 0-4.503 0-13.969.003l2.109-3.02h6.162l-4.937-6.948s-4.528 6.491-6.714 9.535c-.338.328-.755.43-1.177.433z"/></g></g></g></svg>