<svg fill="none" height="50" viewBox="0 0 485 50" width="485" xmlns="http://www.w3.org/2000/svg" xmlns:xlink="http://www.w3.org/1999/xlink"><clipPath id="a"><path d="m4 4h477v42h-477z"/></clipPath><g clip-path="url(#a)" fill="#000"><path clip-rule="evenodd" d="m3.99951 4v42s10.43449.0309 22.73539-.0474c18.0722-.1155 22.5324-.2671 23.2352-.5427 2.6068-1.0227 5.6594-3.9344 7.0078-6.6842l.5715-1.8061s.497-1.8704.497-3.7363c0-1.866-.2539-3.8723-1.0601-5.4911-.4441-.8916-1.4214-2.2897-2.1722-3.1069-.7507-.8173-2.1105-1.8809-2.1105-1.8809s1.0377-1.245 1.3948-2.2635c.5907-1.6844.6372-2.0879.5145-4.4701-.2033-3.9454-1.2036-6.10063-4.0375-8.70003-1.5248-1.39834-2.1746-1.79188-4.3113-2.61063-1.3702-.52497-1.6545-.53295-21.6539-.60428-11.1461-.0399-20.61069-.05586-20.61069-.05586zm116.69149 0-.149 41.8977h58.901l-.127-41.8977h-8.2l-.101 33.5431h-41.803l-.093-33.5431zm25.166 0 .053 25.389h8.432v-25.389zm119.503 0v41.9045h8.264v-33.1965h30.382v33.1965h8.107v-41.9045zm114.33.2459s-.135 6.5795-.079 8.3581h20.092c19.896.0631 20.1.1327 20.818.6459.941.6726 1.732 1.9119 1.704 3.3967-.029 1.547-.899 2.7857-1.984 3.4252-.855.504-1.21.5933-20.814.6716h-19.945l.129 25.0211 8.642.14-.193-16.6472h15.407c9.868-.0356 15.943-.1541 16.898-.3294 8.021-1.4708 12.855-10.6289 9.212-18.0739-1.522-3.10814-4.556-5.53821-8.096-6.48365-1.93-.5155-41.791-.12445-41.791-.12445zm-367.3325 8.5451c-.0018.0345.0226 5.6176 0 12.4073v12.3448h16.8804 16.8803l1.1901-.5514c.9757-.4521 1.2831-.7621 1.7055-1.7205.9734-2.2086.1998-4.6594-1.7522-5.5497-.7798-.3557-2.5576-.5489-13.8171-.6577h-12.9222v-4.1149-4.115h10.9342c10.5895-.1369 11.5146.2574 12.9222-.4988.9214-.495 1.6133-2.3597 1.6143-3.8271.0012-1.6814-.5457-2.6408-1.8737-3.2858-.9784-.4753-1.5785-.4935-16.3446-.4935-8.4308 0-15.4155.0279-15.4172.0623z" fill-rule="evenodd"/><path d="m190.601 45.9045c-3.208-.0068-8.054 0-8.054 0s10.437-14.9702 29.308-41.65509c0 0 25.12 35.95469 28.842 41.64839 0 0-12.177-.0001-37.773.0067l5.703-8.2367h16.663l-13.351-18.9495s-12.245 17.7026-18.155 26.006c-.915.8951-2.042 1.1734-3.183 1.1802z"/><path d="m66.598 45.9045c-3.2088-.0068-8.0546 0-8.0546 0s10.4372-14.9702 29.3083-41.65509c0 0 25.1203 35.95469 28.8413 41.64839 0 0-12.176-.0001-37.7723.0067l5.7025-8.2367h16.6628l-13.3505-18.9495s-12.2453 17.7026-18.1552 26.006c-.9153.8951-2.0422 1.1734-3.1823 1.1802z"/><path d="m324.545 45.9045c-3.209-.0068-8.054 0-8.054 0s10.437-14.9737 29.308-41.6586c0 0 25.12 35.9649 28.841 41.6586 0 0-12.176-.0068-37.772 0l5.702-8.2367h16.663l-13.35-18.9495s-12.246 17.7026-18.156 26.006c-.915.8951-2.042 1.1734-3.182 1.1802z"/><path d="m430.905 45.9045c-3.209-.0068-8.055 0-8.055 0s10.437-14.9702 29.309-41.65509c0 0 25.12 35.95469 28.841 41.64839 0 0-12.177-.0001-37.772.0067l5.702-8.2367h16.663l-13.351-18.9495s-12.245 17.7026-18.155 26.006c-.915.8951-2.042 1.1734-3.182 1.1802z"/></g></svg>