<svg width="485" height="50" viewBox="0 0 485 50" fill="none" xmlns="http://www.w3.org/2000/svg">
<g clip-path="url(#clip0_1582_186)">
<path fill-rule="evenodd" clip-rule="evenodd" d="M3.99951 4V46C3.99951 46 14.434 46.0309 26.7349 45.9526C44.8071 45.8371 49.2673 45.6855 49.9701 45.4099C52.5769 44.3872 55.6295 41.4755 56.9779 38.7257L57.5494 36.9196C57.5494 36.9196 58.0464 35.0492 58.0464 33.1833C58.0464 31.3173 57.7925 29.311 56.9863 27.6922C56.5422 26.8006 55.5649 25.4025 54.8141 24.5853C54.0634 23.768 52.7036 22.7044 52.7036 22.7044C52.7036 22.7044 53.7413 21.4594 54.0984 20.4409C54.6891 18.7565 54.7356 18.353 54.6129 15.9708C54.4096 12.0254 53.4093 9.87017 50.5754 7.27077C49.0506 5.87243 48.4008 5.47889 46.2641 4.66014C44.8939 4.13517 44.6096 4.12719 24.6102 4.05586C13.4641 4.01596 3.99951 4 3.99951 4ZM120.691 4L120.542 45.8977H179.443L179.316 4H171.116L171.015 37.5431H129.212L129.119 4H120.691ZM145.857 4L145.91 29.389H154.342V4H145.857ZM265.36 4V45.9045H273.624V12.708H304.006V45.9045H312.113V4H265.36ZM379.69 4.2459C379.69 4.2459 379.555 10.8254 379.611 12.604H399.703C419.599 12.6671 419.803 12.7367 420.521 13.2499C421.462 13.9225 422.253 15.1618 422.225 16.6466C422.196 18.1936 421.326 19.4323 420.241 20.0718C419.386 20.5758 419.031 20.6651 399.427 20.7434H379.482L379.611 45.7645L388.253 45.9045L388.06 29.2573H403.467C413.335 29.2217 419.41 29.1032 420.365 28.9279C428.386 27.4571 433.22 18.299 429.577 10.854C428.055 7.74586 425.021 5.31579 421.481 4.37035C419.551 3.85485 379.69 4.2459 379.69 4.2459ZM12.3575 12.791C12.3557 12.8255 12.3801 18.4086 12.3575 25.1983V37.5431H29.2379H46.1182L47.3083 36.9917C48.284 36.5396 48.5914 36.2296 49.0138 35.2712C49.9872 33.0626 49.2136 30.6118 47.2616 29.7215C46.4818 29.3658 44.704 29.1726 33.4445 29.0638H20.5223V24.9489V20.8339H31.4565C42.046 20.697 42.9711 21.0913 44.3787 20.3351C45.3001 19.8401 45.992 17.9754 45.993 16.508C45.9942 14.8266 45.4473 13.8672 44.1193 13.2222C43.1409 12.7469 42.5408 12.7287 27.7747 12.7287C19.3439 12.7287 12.3592 12.7566 12.3575 12.791Z" fill="white"/>
<path d="M190.601 45.9045C187.393 45.8977 182.547 45.9045 182.547 45.9045C182.547 45.9045 192.984 30.9343 211.855 4.24941C211.855 4.24941 236.975 40.2041 240.697 45.8978C240.697 45.8978 228.52 45.8977 202.924 45.9045L208.627 37.6678L225.29 37.6678L211.939 18.7183C211.939 18.7183 199.694 36.4209 193.784 44.7243C192.869 45.6194 191.742 45.8977 190.601 45.9045Z" fill="white"/>
<path d="M66.598 45.9045C63.3892 45.8977 58.5434 45.9045 58.5434 45.9045C58.5434 45.9045 68.9806 30.9343 87.8517 4.24941C87.8517 4.24941 112.972 40.2041 116.693 45.8978C116.693 45.8978 104.517 45.8977 78.9207 45.9045L84.6232 37.6678L101.286 37.6678L87.9355 18.7183C87.9355 18.7183 75.6902 36.4209 69.7803 44.7243C68.865 45.6194 67.7381 45.8977 66.598 45.9045Z" fill="white"/>
<path d="M324.545 45.9045C321.336 45.8977 316.491 45.9045 316.491 45.9045C316.491 45.9045 326.928 30.9308 345.799 4.2459C345.799 4.2459 370.919 40.2108 374.64 45.9045C374.64 45.9045 362.464 45.8977 336.868 45.9045L342.57 37.6678L359.233 37.6678L345.883 18.7183C345.883 18.7183 333.637 36.4209 327.727 44.7243C326.812 45.6194 325.685 45.8977 324.545 45.9045Z" fill="white"/>
<path d="M430.905 45.9045C427.696 45.8977 422.85 45.9045 422.85 45.9045C422.85 45.9045 433.287 30.9343 452.159 4.24941C452.159 4.24941 477.279 40.2041 481 45.8978C481 45.8978 468.823 45.8977 443.228 45.9045L448.93 37.6678L465.593 37.6678L452.242 18.7183C452.242 18.7183 439.997 36.4209 434.087 44.7243C433.172 45.6194 432.045 45.8977 430.905 45.9045Z" fill="white"/>
</g>
<defs>
<clipPath id="clip0_1582_186">
<rect width="477" height="42" fill="white" transform="translate(4 4)"/>
</clipPath>
</defs>
</svg>
