<svg fill="none" height="50" viewBox="0 0 50 50" width="50" xmlns="http://www.w3.org/2000/svg" xmlns:xlink="http://www.w3.org/1999/xlink"><clipPath id="a"><path d="m0 0h50v50h-50z" transform="matrix(1 0 0 -1 0 50)"/></clipPath><g clip-path="url(#a)" fill="#181818" fill-opacity=".2"><path d="m-25.0704-49.2202c-13.4797 0-24.4468 10.9571-24.4468 24.4275 0 13.4683 10.9671 24.425452 24.4468 24.425452s24.446876-10.957152 24.446876-24.425452c0-13.4704-10.967176-24.4275-24.446876-24.4275zm0 49.971665c-14.0973 0-25.5663-11.458965-25.5663-25.544165 0-14.0873 11.469-25.5462 25.5663-25.5462 14.0975 0 25.566347 11.4589 25.566347 25.5462 0 14.0852-11.468847 25.544165-25.566347 25.544165z"/><path d="m24.9413-49.2202c-13.4798 0-24.446829 10.9571-24.446829 24.4275 0 13.4683 10.967029 24.425452 24.446829 24.425452 13.4797 0 24.4469-10.957152 24.4469-24.425452 0-13.4704-10.9672-24.4275-24.4469-24.4275zm0 49.971665c-14.0975 0-25.5663-11.458965-25.5663-25.544165 0-14.0873 11.4688-25.5462 25.5663-25.5462 14.0973 0 25.5664 11.4589 25.5664 25.5462 0 14.0852-11.4691 25.544165-25.5664 25.544165z"/><path d="m74.9548-49.2202c-13.4797 0-24.4467 10.9571-24.4467 24.4275 0 13.4683 10.967 24.425452 24.4467 24.425452 13.4799 0 24.4469-10.957152 24.4469-24.425452 0-13.4704-10.967-24.4275-24.4469-24.4275zm0 49.971665c-14.0973 0-25.5661-11.458965-25.5661-25.544165 0-14.0873 11.4688-25.5462 25.5661-25.5462 14.0975 0 25.5662 11.4589 25.5662 25.5462 0 14.0852-11.4687 25.544165-25.5662 25.544165z"/><path d="m-25.0704.628451c-13.4797 0-24.4468 10.957149-24.4468 24.425449 0 13.4684 10.9671 24.4255 24.4468 24.4255s24.446876-10.9571 24.446876-24.4255c0-13.4683-10.967176-24.425449-24.446876-24.425449zm0 49.969649c-14.0973 0-25.5663-11.4589-25.5663-25.5442 0-14.0852 11.469-25.544182 25.5663-25.544182 14.0975 0 25.566347 11.458982 25.566347 25.544182 0 14.0853-11.468847 25.5442-25.566347 25.5442z"/><path d="m-.0645289-24.3584c-13.4800711 0-24.4470711 10.9591-24.4470711 24.4274706 0 13.4683294 10.967 24.4254294 24.4470711 24.4254294 13.4797289 0 24.4466289-10.9571 24.4466289-24.4254294 0-13.4683706-10.9669-24.4274706-24.4466289-24.4274706zm0 49.9717c-14.0976711 0-25.5663711-11.459-25.5663711-25.5442294 0-14.0871706 11.4687-25.5461706 25.5663711-25.5461706 14.0975289 0 25.5661289 11.459 25.5661289 25.5461706 0 14.0852294-11.4686 25.5442294-25.5661289 25.5442294z"/><path d="m24.9413.628451c-13.4798 0-24.446829 10.957149-24.446829 24.425449 0 13.4684 10.967029 24.4255 24.446829 24.4255 13.4797 0 24.4469-10.9571 24.4469-24.4255 0-13.4683-10.9672-24.425449-24.4469-24.425449zm0 49.969649c-14.0975 0-25.5663-11.4589-25.5663-25.5442 0-14.0852 11.4688-25.544182 25.5663-25.544182 14.0973 0 25.5664 11.458982 25.5664 25.544182 0 14.0853-11.4691 25.5442-25.5664 25.5442z"/><path d="m49.9493-24.3584c-13.4798 0-24.447 10.9591-24.447 24.4274706 0 13.4683294 10.9672 24.4254294 24.447 24.4254294 13.4797 0 24.4467-10.9571 24.4467-24.4254294 0-13.4683706-10.967-24.4274706-24.4467-24.4274706zm0 49.9717c-14.0976 0-25.5665-11.459-25.5665-25.5442294 0-14.0871706 11.4689-25.5461706 25.5665-25.5461706 14.0971 0 25.5662 11.459 25.5662 25.5461706 0 14.0852294-11.4691 25.5442294-25.5662 25.5442294z"/><path d="m74.9548.628451c-13.4797 0-24.4467 10.957149-24.4467 24.425449 0 13.4684 10.967 24.4255 24.4467 24.4255 13.4799 0 24.4469-10.9571 24.4469-24.4255 0-13.4683-10.967-24.425449-24.4469-24.425449zm0 49.969649c-14.0973 0-25.5661-11.4589-25.5661-25.5442 0-14.0852 11.4688-25.544182 25.5661-25.544182 14.0975 0 25.5662 11.458982 25.5662 25.544182 0 14.0853-11.4687 25.5442-25.5662 25.5442z"/><path d="m-25.0704 50.4751c-13.4797 0-24.4468 10.9571-24.4468 24.4257 0 13.4685 10.9671 24.4263 24.4468 24.4263s24.446876-10.9578 24.446876-24.4263c0-13.4686-10.967176-24.4257-24.446876-24.4257zm0 49.9709c-14.0973 0-25.5663-11.4596-25.5663-25.5452 0-14.0854 11.469-25.5444 25.5663-25.5444 14.0975 0 25.566347 11.459 25.566347 25.5444 0 14.0856-11.468847 25.5452-25.566347 25.5452z"/><path d="m-.0645289 25.4903c-13.4800711 0-24.4470711 10.9572-24.4470711 24.4255s10.967 24.4259 24.4470711 24.4259c13.4797289 0 24.4466289-10.9576 24.4466289-24.4259s-10.9669-24.4255-24.4466289-24.4255zm0 49.9699c-14.0976711 0-25.5663711-11.4592-25.5663711-25.5444s11.4687-25.5442 25.5663711-25.5442c14.0975289 0 25.5661289 11.459 25.5661289 25.5442s-11.4686 25.5444-25.5661289 25.5444z"/><path d="m24.9413 50.4751c-13.4798 0-24.446829 10.9571-24.446829 24.4257 0 13.4685 10.967029 24.4263 24.446829 24.4263 13.4797 0 24.4469-10.9578 24.4469-24.4263 0-13.4686-10.9672-24.4257-24.4469-24.4257zm0 49.9709c-14.0975 0-25.5663-11.4596-25.5663-25.5452 0-14.0854 11.4688-25.5444 25.5663-25.5444 14.0973 0 25.5664 11.459 25.5664 25.5444 0 14.0856-11.4691 25.5452-25.5664 25.5452z"/><path d="m49.9493 25.4903c-13.4798 0-24.447 10.9572-24.447 24.4255s10.9672 24.4259 24.447 24.4259c13.4797 0 24.4467-10.9576 24.4467-24.4259s-10.967-24.4255-24.4467-24.4255zm0 49.9699c-14.0976 0-25.5665-11.4592-25.5665-25.5444s11.4689-25.5442 25.5665-25.5442c14.0971 0 25.5662 11.459 25.5662 25.5442s-11.4691 25.5444-25.5662 25.5444z"/><path d="m74.9548 50.4751c-13.4797 0-24.4467 10.9571-24.4467 24.4257 0 13.4685 10.967 24.4263 24.4467 24.4263 13.4799 0 24.4469-10.9578 24.4469-24.4263 0-13.4686-10.967-24.4257-24.4469-24.4257zm0 49.9709c-14.0973 0-25.5661-11.4596-25.5661-25.5452 0-14.0854 11.4688-25.5444 25.5661-25.5444 14.0975 0 25.5662 11.459 25.5662 25.5444 0 14.0856-11.4687 25.5452-25.5662 25.5452z"/></g></svg>